<?xml version="1.0" encoding="utf-8"?>
<!-- Generator: Adobe Illustrator 23.1.1, SVG Export Plug-In . SVG Version: 6.00 Build 0)  -->
<svg version="1.1" xmlns="http://www.w3.org/2000/svg" xmlns:xlink="http://www.w3.org/1999/xlink" x="0px" y="0px"
	 viewBox="0 0 13822.09 1062.86" style="enable-background:new 0 0 13822.09 1062.86;" xml:space="preserve">
<style type="text/css">
	.st0{fill:#FEFB77;}
</style>
<g id="Layer_1">
</g>
<g id="Layer_2">
</g>
<g id="Layer_3">
	<g>
		<path class="st0" d="M7273.66,378.82c-7.2-29.02-11.94-49.82-14.23-62.39c-2.06,11.65-6.12,30.85-12.17,57.59
			c-6.06,26.74-19.49,79.42-40.28,158.03h106.61l-21.6-82.27C7286.97,431.5,7280.86,407.84,7273.66,378.82z"/>
		<path class="st0" d="M6423.79,345.22h-39.42v280.75h30.17c41.14,0,71.3-11.94,90.5-35.82c19.2-23.88,28.8-60.39,28.8-109.52
			c0-45.94-9.08-79.99-27.25-102.15C6488.41,356.31,6460.82,345.22,6423.79,345.22z"/>
		<path class="st0" d="M5243.64,339.05c-67.87,0-101.81,48.91-101.81,146.72c0,96.9,33.71,145.35,101.13,145.35
			c34.28,0,59.7-11.77,76.27-35.31c16.57-23.54,24.85-60.21,24.85-110.04c0-50.05-8.4-87.01-25.2-110.9
			C5302.09,351,5277.01,339.05,5243.64,339.05z"/>
		<path class="st0" d="M4027.16,345.22h-39.42v280.75h30.17c41.14,0,71.3-11.94,90.5-35.82c19.2-23.88,28.8-60.39,28.8-109.52
			c0-45.94-9.08-79.99-27.25-102.15C4091.77,356.31,4064.18,345.22,4027.16,345.22z"/>
		<path class="st0" d="M5859.26,339.05c-67.87,0-101.81,48.91-101.81,146.72c0,96.9,33.71,145.35,101.13,145.35
			c34.28,0,59.7-11.77,76.27-35.31c16.57-23.54,24.85-60.21,24.85-110.04c0-50.05-8.4-87.01-25.2-110.9
			C5917.7,351,5892.62,339.05,5859.26,339.05z"/>
		<path class="st0" d="M-0.46,0.43v1062h13823V0.43H-0.46z M579.37,346.59H457.33v390.45H321.93V346.59H199.55V235.87h379.82V346.59
			z M1136.71,737.04h-136.09V532.73H843.27v204.31H707.18V235.87h136.09v185.8h157.34v-185.8h136.09V737.04z M1598.75,344.54H1436.6
			v78.84h150.15v108.67H1436.6v94.61h162.14v110.38H1301.2V235.87h297.55V344.54z M2211.91,633.17c22.16,0,43.65-3.08,64.45-9.26
			c20.79-6.17,41.7-13.59,62.73-22.28v114.5c-41.82,18.51-89.13,27.77-141.92,27.77c-75.65,0-133.64-21.94-173.97-65.82
			c-40.34-43.88-60.5-107.3-60.5-190.25c0-51.88,9.77-97.47,29.31-136.78c19.54-39.3,47.65-69.53,84.33-90.67
			c36.68-21.14,79.81-31.71,129.41-31.71c54.16,0,105.93,11.77,155.29,35.31l-41.48,106.61c-18.51-8.68-37.02-15.99-55.53-21.94
			c-18.51-5.94-38.39-8.91-59.65-8.91c-32.22,0-57.37,13.2-75.42,39.59c-18.06,26.4-27.08,62.79-27.08,109.18
			C2101.87,584.96,2138.55,633.17,2211.91,633.17z M2922.48,737.04h-136.09V532.73h-157.35v204.31h-136.09V235.87h136.09v185.8
			h157.35v-185.8h136.09V737.04z M3223.06,737.04h-136.09V235.87h136.09V737.04z M3715.95,737.04h-328.4V235.87h135.41v391.82h193
			V737.04z M4208.67,669.17c-46.05,45.25-110.78,67.87-194.2,67.87h-162.14V235.87h173.46c80.44,0,142.55,20.57,186.31,61.7
			c43.76,41.14,65.65,100.56,65.65,178.26C4277.74,559.47,4254.72,623.92,4208.67,669.17z M4853.25,737.04h-136.09V532.73h-157.35
			v204.31h-136.09V235.87h136.09v185.8h157.35v-185.8h136.09V737.04z M5424.64,678.08c-41.37,43.88-101.93,65.82-181.68,65.82
			c-78.62,0-138.89-22.05-180.83-66.16c-41.94-44.1-62.9-108.32-62.9-192.65c0-83.41,20.85-147.11,62.56-191.11
			c41.7-43.99,102.33-65.99,181.85-65.99c79.75,0,140.21,21.83,181.34,65.47c41.14,43.65,61.7,107.76,61.7,192.31
			C5486.69,570.1,5466,634.2,5424.64,678.08z M6040.26,678.08c-41.37,43.88-101.93,65.82-181.68,65.82
			c-78.62,0-138.89-22.05-180.83-66.16c-41.94-44.1-62.9-108.32-62.9-192.65c0-83.41,20.85-147.11,62.56-191.11
			c41.7-43.99,102.33-65.99,181.85-65.99c79.75,0,140.21,21.83,181.34,65.47c41.14,43.65,61.7,107.76,61.7,192.31
			C6102.3,570.1,6081.62,634.2,6040.26,678.08z M6605.31,669.17c-46.05,45.25-110.78,67.87-194.2,67.87h-162.14V235.87h173.46
			c80.44,0,142.55,20.57,186.31,61.7c43.76,41.14,65.65,100.56,65.65,178.26C6674.38,559.47,6651.35,623.92,6605.31,669.17z
			 M7366.38,737.04l-24.68-93.93h-162.83l-25.37,93.93h-148.78l163.52-503.23h180.66l165.57,503.23H7366.38z M8101.98,737.04
			h-177.57l-183.06-353.08h-3.09c4.34,55.53,6.51,97.93,6.51,127.18v225.91H7624.8V235.87h176.88l182.37,348.28h2.06
			c-3.2-50.5-4.8-91.07-4.8-121.69V235.87h120.67V737.04z M8402.56,737.04h-136.09V235.87h136.09V737.04z M9137.81,737.04h-124.44
			V517.31c0-11.42,0.17-24.11,0.51-38.05c0.34-13.94,1.89-48.1,4.63-102.5h-3.08L8914.3,737.04h-128.89l-102.5-360.97h-3.08
			c4.8,61.48,7.2,109.24,7.2,143.29v217.68h-119.98V235.87h180.31l104.55,355.83h2.74l102.5-355.83h180.66V737.04z M9599.5,344.54
			h-162.14v78.84h150.15v108.67h-150.15v94.61h162.14v110.38h-297.55V235.87h297.55V344.54z M10325.1,346.59h-122.04v390.45h-135.41
			V346.59h-122.38V235.87h379.82V346.59z M10589,737.04h-136.09V235.87H10589V737.04z M11324.25,737.04h-124.44V517.31
			c0-11.42,0.17-24.11,0.51-38.05c0.34-13.94,1.89-48.1,4.63-102.5h-3.08l-101.13,360.28h-128.89l-102.5-360.97h-3.08
			c4.8,61.48,7.2,109.24,7.2,143.29v217.68h-119.98V235.87h180.31l104.55,355.83h2.74l102.5-355.83h180.66V737.04z M11785.95,344.54
			h-162.14v78.84h150.15v108.67h-150.15v94.61h162.14v110.38h-297.55V235.87h297.55V344.54z M12258.27,737.04h-328.4V235.87h135.41
			v391.82h193V737.04z M12530.74,737.04h-136.09V235.87h136.09V737.04z M13172.41,737.04h-177.57l-183.06-353.08h-3.08
			c4.34,55.53,6.51,97.93,6.51,127.18v225.91h-119.98V235.87h176.88l182.37,348.28h2.06c-3.2-50.5-4.8-91.07-4.8-121.69V235.87
			h120.67V737.04z M13634.45,344.54h-162.14v78.84h150.15v108.67h-150.15v94.61h162.14v110.38h-297.55V235.87h297.55V344.54z"/>
	</g>
</g>
</svg>
