<?xml version="1.0" encoding="utf-8"?>
<!-- Generator: Adobe Illustrator 23.1.1, SVG Export Plug-In . SVG Version: 6.00 Build 0)  -->
<svg version="1.1" id="Layer_1" xmlns="http://www.w3.org/2000/svg" xmlns:xlink="http://www.w3.org/1999/xlink" x="0px" y="0px"
	 viewBox="0 0 1062.9 8192" style="enable-background:new 0 0 1062.9 8192;" xml:space="preserve">
<style type="text/css">
	.st0{display:none;}
	.st1{display:inline;}
	.st2{fill:#FEFB77;}
</style>
<g>
	<path class="st2" d="M518.4,3721.3h-18v128h13.8c18.8,0,32.5-5.4,41.2-16.3c8.8-10.9,13.1-27.5,13.1-49.9
		c0-20.9-4.1-36.5-12.4-46.6C547.8,3726.3,535.2,3721.3,518.4,3721.3z"/>
	<path class="st2" d="M555.4,2655.3c8.8-10.9,13.1-27.5,13.1-49.9c0-20.9-4.1-36.5-12.4-46.6c-8.3-10.1-20.9-15.2-37.7-15.2h-18v128
		h13.8C532.9,2671.6,546.6,2666.2,555.4,2655.3z"/>
	<path class="st2" d="M531.3,3557.2c15.6,0,27.2-5.4,34.8-16.1c7.6-10.7,11.3-27.4,11.3-50.2c0-22.8-3.8-39.7-11.5-50.5
		c-7.7-10.9-19.1-16.3-34.3-16.3c-30.9,0-46.4,22.3-46.4,66.9C485.2,3535.1,500.5,3557.2,531.3,3557.2z"/>
	<path class="st2" d="M531.3,3262.8c15.6,0,27.2-5.4,34.8-16.1c7.6-10.7,11.3-27.4,11.3-50.2c0-22.8-3.8-39.7-11.5-50.5
		c-7.7-10.9-19.1-16.3-34.3-16.3c-30.9,0-46.4,22.3-46.4,66.9C485.2,3240.7,500.5,3262.8,531.3,3262.8z"/>
	<path class="st2" d="M546.2,4120.8c-2.3-8.3-5.1-19.1-8.4-32.3c-3.3-13.2-5.4-22.7-6.5-28.4c-0.9,5.3-2.8,14.1-5.5,26.2
		c-2.8,12.2-8.9,36.2-18.4,72H556L546.2,4120.8z"/>
	<path class="st2" d="M216.7,87.6v8016.8h629.4V87.6H216.7z M524.7,2199.4V2378h88v49.8H463v-228.4H524.7z M500.4,2133.5V1905h62
		v228.4H500.4z M517.7,2493.8c36.7,0,65,9.4,84.9,28.1c19.9,18.8,29.9,45.8,29.9,81.2c0,38.1-10.5,67.5-31.5,88.1
		c-21,20.6-50.5,30.9-88.5,30.9h-73.9v-228.4H517.7z M444.8,375.5H618V426h-55.6v178h-61.7V426h-55.8V375.5z M433.5,669.9h62v84.7
		h71.7v-84.7h62v228.4h-62v-93.1h-71.7v93.1h-62V669.9z M557.4,1497.3c10.1,0,19.9-1.4,29.4-4.2c9.5-2.8,19-6.2,28.6-10.2v52.2
		c-19.1,8.4-40.6,12.7-64.7,12.7c-34.5,0-60.9-10-79.3-30c-18.4-20-27.6-48.9-27.6-86.7c0-23.6,4.5-44.4,13.4-62.3
		c8.9-17.9,21.7-31.7,38.4-41.3c16.7-9.6,36.4-14.5,59-14.5c24.7,0,48.3,5.4,70.8,16.1l-18.9,48.6c-8.4-4-16.9-7.3-25.3-10
		c-8.4-2.7-17.5-4.1-27.2-4.1c-14.7,0-26.1,6-34.4,18c-8.2,12-12.3,28.6-12.3,49.8C507.3,1475.3,524,1497.3,557.4,1497.3z
		 M598.4,1049.8v49.5H530v43.1h73.9v50.3H468.3V964.3h135.6v49.5H530v35.9H598.4z M433.5,1610.6h62v84.7h71.7v-84.7h62v228.4h-62
		v-93.1h-71.7v93.1h-62V1610.6z M433.5,2788.2h62v84.7h71.7v-84.7h62v228.4h-62v-93.1h-71.7v93.1h-62V2788.2z M448.7,3109.1
		c19-20.1,46.6-30.1,82.9-30.1c36.4,0,63.9,9.9,82.7,29.8c18.8,19.9,28.1,49.1,28.1,87.7c0,38.4-9.4,67.7-28.3,87.7
		c-18.9,20-46.5,30-82.8,30c-35.8,0-63.3-10.1-82.4-30.2c-19.1-20.1-28.7-49.4-28.7-87.8C420.2,3158.2,429.7,3129.2,448.7,3109.1z
		 M448.7,3403.5c19-20.1,46.6-30.1,82.9-30.1c36.4,0,63.9,9.9,82.7,29.8c18.8,19.9,28.1,49.1,28.1,87.7c0,38.4-9.4,67.7-28.3,87.7
		c-18.9,20-46.5,30-82.8,30c-35.8,0-63.3-10.1-82.4-30.2c-19.1-20.1-28.7-49.4-28.7-87.8C420.2,3452.6,429.7,3423.6,448.7,3403.5z
		 M632.6,3780.8c0,38.1-10.5,67.5-31.5,88.1c-21,20.6-50.5,30.9-88.5,30.9h-73.9v-228.4h79.1c36.7,0,65,9.4,84.9,28.1
		C622.6,3718.3,632.6,3745.4,632.6,3780.8z M489.8,4022.4h82.3l75.5,229.4h-67.5l-11.2-42.8h-74.2l-11.6,42.8h-67.8L489.8,4022.4z
		 M559.2,4546.2l-83.4-160.9h-1.4c2,25.3,3,44.6,3,58v103h-54.7v-228.4h80.6l83.1,158.8h0.9c-1.5-23-2.2-41.5-2.2-55.5v-103.3h55
		v228.4H559.2z M562.4,4612.1v228.4h-62v-228.4H562.4z M603.9,7663.2H530v35.9h68.4v49.5H530v43.1h73.9v50.3H468.3v-228.4h135.6
		V7663.2z M640.2,7547.7h-80.9l-83.4-160.9h-1.4c2,25.3,3,44.6,3,58v103h-54.7v-228.4h80.6l83.1,158.8h0.9
		c-1.5-23-2.2-41.5-2.2-55.5v-103.3h55V7547.7z M598.4,6521.5v49.5H530v43.1h73.9v50.3H468.3v-228.4h135.6v49.5H530v35.9H598.4z
		 M524.7,6730.5v178.6h88v49.8H463v-228.4H524.7z M562.4,7024.9v228.4h-62v-228.4H562.4z M661.6,6370.1h-56.7v-100.2
		c0-5.2,0.1-11,0.2-17.3c0.2-6.4,0.9-21.9,2.1-46.7h-1.4l-46.1,164.2h-58.8l-46.7-164.5h-1.4c2.2,28,3.3,49.8,3.3,65.3v99.2h-54.7
		v-228.4h82.2l47.7,162.2h1.2l46.7-162.2h82.3V6370.1z M598.4,5286.4v49.5H530v43.1h73.9v50.3H468.3v-228.4h135.6v49.5H530v35.9
		H598.4z M618,5552.9v50.5h-55.6v178h-61.7v-178h-55.8v-50.5H618z M562.4,5847.3v228.4h-62v-228.4H562.4z M661.6,5135h-56.7v-100.2
		c0-5.2,0.1-11,0.2-17.3c0.2-6.4,0.9-21.9,2.1-46.7h-1.4L559.7,5135h-58.8l-46.7-164.5h-1.4c2.2,28,3.3,49.8,3.3,65.3v99.2h-54.7
		v-228.4h82.2l47.7,162.2h1.2l46.7-162.2h82.3V5135z"/>
</g>
</svg>
