<?xml version="1.0" encoding="utf-8"?>
<!-- Generator: Adobe Illustrator 23.0.6, SVG Export Plug-In . SVG Version: 6.00 Build 0)  -->
<svg version="1.1" id="Layer_1" xmlns="http://www.w3.org/2000/svg" xmlns:xlink="http://www.w3.org/1999/xlink" x="0px" y="0px"
	 viewBox="0 0 500 500" style="enable-background:new 0 0 500 500;" xml:space="preserve">
<style type="text/css">
	.st0{fill:#FBD118;}
</style>
<g id="FQSr8i.tif_1_">
	<g>
		<path class="st0" d="M61.46,251.19c0-1.26,0-2.51,0-3.77c7.62-9.23,17.64-10.68,28.85-9.51c13.11,1.37,26.28,2.37,39.44,3
			c9.69,0.47,19.42,0.09,30.93,0.09c-4.81-4.05-8.9-4.06-12.83-4.58c-18.99-2.5-37.99-4.97-56.98-7.56
			c-2.59-0.35-6.44,0.31-6.57-3.66c-0.1-3.01,2.82-4.72,5.21-6.22c3.28-2.06,6.77-0.72,10.09-0.08c15.42,2.98,30.83,6.06,46.21,9.21
			c18.35,3.76,15.98,1.57,20.39-10.86c0.94-2.66,1.9-5.44,3.5-7.7c5.38-7.61,2.5-11.98-4.67-16.47c-14.37-9-28.24-18.8-42.27-28.34
			c-2.32-1.58-4.84-3.18-6.49-5.36c-2.38-3.14-3.46-7.56-0.67-10.45c3-3.1,5.63,0.96,7.88,2.65c16.04,12.13,31.9,24.49,47.92,36.65
			c2.42,1.84,4.69,5.11,8.59,3.24c0.17-3.6-2.39-4.74-4.19-6.33c-15.3-13.52-30.55-27.1-46-40.46
			c-12.65-10.95-17.37-21.32-11.92-27.17c5.52-5.93,16.39-1.3,27.23,11.21c13.37,15.43,26.9,30.73,40.46,45.99
			c1.8,2.03,3.09,5.73,7.22,4.12c0.31-4.37-2.69-6.63-4.7-9.27c-11.98-15.76-24.11-31.4-36.1-47.15c-1.61-2.11-4.92-4.59-2.68-7.25
			c2.46-2.92,6.68-2.04,9.6-0.24c2.55,1.57,4.6,4.23,6.34,6.77c8.53,12.44,16.9,24.98,25.29,37.51c9.4,14.04,9.37,14.04,24.41,7.54
			c2.59-1.12,5.21-2.32,7.93-2.97c7.11-1.7,8.57-5.99,7.12-12.7c-3.44-15.97-6.45-32.03-9.62-48.05c-0.61-3.08-1.3-6.16-1.62-9.28
			c-0.53-5.13,2.4-9.35,6.76-9.94c4.91-0.66,3.74,4.83,4.16,7.86c2.62,18.66,4.97,37.36,7.49,56.03c0.51,3.76,0.08,7.99,4.1,11.16
			c2.28-3.53,1.34-6.7,1.17-9.68c-1.26-21.94-2.75-43.87-3.91-65.82c-0.57-10.78,5.24-21.12,11.35-21.18
			c6.1-0.06,12.07,10.36,11.51,21.06c-1.19,22.58-2.72,45.13-3.96,67.71c-0.13,2.45-1.73,5.63,2.01,7.4
			c3.26-3.28,2.87-7.53,3.39-11.45c2.51-18.68,4.9-37.37,7.49-56.03c0.39-2.81-0.51-7.55,3.98-7.11c3.78,0.37,6.54,3.95,6.81,8.02
			c0.2,3.06-0.56,6.23-1.16,9.3c-3.26,16.65-6.44,33.31-9.99,49.9c-1.42,6.63-0.13,10.81,6.96,12.84c5.09,1.46,10.14,3.57,14.7,6.26
			c6.05,3.56,9.51,1.83,13.06-3.66c9.55-14.77,19.51-29.29,29.37-43.86c1.58-2.33,3.23-4.72,5.3-6.58c3.05-2.73,7.54-3.74,10.47-1.4
			c4.06,3.24-0.61,6.11-2.39,8.47c-11.9,15.82-24.1,31.41-36.04,47.2c-1.89,2.5-5.36,4.67-3.75,8.89c4.2,0.71,5.38-2.89,7.28-5.03
			c15.25-17.12,30.3-34.43,45.57-51.53c6.47-7.25,17.18-9.59,21.5-5.14c4.37,4.51,1.95,14.87-5.46,21.48
			c-17.35,15.48-34.88,30.74-52.26,46.17c-1.9,1.69-5.19,2.83-3.94,6.68c4.15,1.2,6.32-2.12,8.87-4.05
			c15.78-11.95,31.39-24.12,47.18-36.06c2.27-1.72,5.03-5.8,7.87-2.8c3.03,3.2,1.81,7.84-1.07,11.17c-1.81,2.09-4.33,3.6-6.66,5.18
			c-13.52,9.17-26.74,18.86-40.75,27.22c-8.76,5.23-10.35,10.4-4.8,18.73c2.21,3.33,3.53,7.4,4.58,11.31
			c1.77,6.58,5.59,8.18,11.99,6.83c16.59-3.52,33.26-6.67,49.92-9.88c3.38-0.65,6.87-1.49,10.23-1.23c3.99,0.31,7.65,3.07,7.84,6.94
			c0.22,4.39-4.48,3.42-7.3,3.81c-18.98,2.61-37.99,5.01-56.97,7.6c-3.67,0.5-7.96,0-11.21,4.89c3,0.26,4.81,0.64,6.6,0.54
			c19.12-1.13,38.25-2.12,57.35-3.61c12.68-0.99,25.23-2.52,34.49,9.06c0,1.26,0,2.51,0,3.77c-7.67,9.09-17.62,10.72-28.85,9.52
			c-13.1-1.4-26.26-2.37-39.41-3c-9.72-0.47-19.48-0.09-30.2-0.09c3.9,4.5,8.2,4.01,12.08,4.53c18.97,2.57,37.96,5,56.93,7.58
			c2.59,0.35,6.43-0.32,6.57,3.64c0.1,3.01-2.82,4.72-5.19,6.23c-3.28,2.09-6.76,0.73-10.08,0.09c-15.41-2.97-30.77-6.24-46.2-9.12
			c-17.58-3.28-15.36-3.29-20.77,11.6c-0.85,2.35-1.71,4.82-3.14,6.83c-5.36,7.56-2.58,11.99,4.64,16.47
			c14.14,8.76,27.8,18.29,41.56,27.64c2.81,1.91,5.7,4.08,7.67,6.77c2.07,2.82,2.86,7.06,0.36,9.68c-3.12,3.27-5.64-0.79-7.86-2.46
			c-16.03-12.11-31.88-24.47-47.9-36.59c-2.48-1.87-4.65-5.42-8.87-3.56c-0.43,4.17,3.11,5.35,5.28,7.28
			c16.89,15.02,33.95,29.85,50.83,44.88c7.86,6.99,10.53,17.56,5.98,22.13c-4.55,4.57-15.12,1.9-22.12-5.96
			c-15.24-17.11-30.28-34.4-45.5-51.53c-1.82-2.04-3.11-5.69-7.23-4.25c-0.35,4.39,2.63,6.66,4.64,9.3
			c11.98,15.74,24.12,31.35,36.05,47.13c1.68,2.22,5.71,4.75,2.46,7.86c-2.62,2.51-6.81,1.67-9.68-0.37
			c-2.47-1.76-4.43-4.41-6.17-6.97c-10.02-14.82-19.99-29.69-29.8-44.65c-3.26-4.98-6.64-6.82-12.42-3.51
			c-4.86,2.79-10.18,5-15.55,6.63c-6.61,2-7.91,5.81-6.57,12.12c3.46,16.27,6.5,32.63,9.66,48.96c0.65,3.39,1.55,6.83,1.47,10.23
			c-0.11,4.47-2.91,8.38-7.17,8.61c-4.27,0.24-3.31-4.56-3.7-7.4c-2.61-18.97-4.99-37.96-7.58-56.93c-0.5-3.64,0.01-7.94-3.98-10.49
			c-2.17,2.58-1.53,4.85-1.4,6.98c1.17,19.1,2.16,38.22,3.7,57.3c1.01,12.44,1.93,24.56-9.2,33.54c-1.26,0-2.51,0-3.77,0
			c-9.14-7.65-10.73-17.61-9.54-28.83c1.39-13.1,2.38-26.25,3.01-39.41c0.47-9.72,0.09-19.48,0.09-30.17
			c-4.5,3.85-4.01,8.15-4.54,12.03c-2.57,18.97-4.99,37.96-7.57,56.93c-0.35,2.59,0.33,6.43-3.62,6.59
			c-3.02,0.13-4.72-2.81-6.24-5.17c-2.1-3.27-0.75-6.76-0.11-10.08c2.96-15.41,6.29-30.76,9.08-46.2
			c3.16-17.46,3.71-15.27-11.54-20.78c-2.65-0.96-5.38-1.98-7.67-3.57c-6.92-4.79-10.99-2.24-15.1,4.25
			c-9.24,14.58-19.11,28.76-28.79,43.06c-1.57,2.32-3.22,4.78-5.39,6.47c-3.13,2.43-7.51,3.48-10.46,0.81
			c-3.3-2.99,0.79-5.63,2.47-7.85c12.12-16.03,24.47-31.88,36.62-47.88c1.9-2.5,5.07-4.79,3.73-8.85c-4.39-0.39-5.59,3.11-7.53,5.29
			c-15.02,16.89-29.86,33.94-44.89,50.82c-7,7.85-17.58,10.51-22.12,5.94c-4.54-4.58-1.86-15.13,6-22.13
			c17.12-15.23,34.41-30.28,51.54-45.49c2.04-1.81,5.7-3.09,4.2-7.21c-4.38-0.32-6.65,2.66-9.3,4.67
			c-15.75,11.97-31.36,24.12-47.14,36.03c-2.21,1.67-4.75,5.73-7.86,2.44c-2.48-2.63-1.7-6.86,0.38-9.68
			c1.98-2.69,4.86-4.85,7.68-6.76c14.29-9.69,28.58-19.4,43.1-28.74c5.7-3.67,7.96-7.22,3.98-13.72c-2.76-4.49-4.73-9.61-6.23-14.69
			c-1.96-6.61-5.82-7.96-12.12-6.62c-16.27,3.45-32.63,6.53-48.96,9.7c-3.38,0.66-6.83,1.57-10.22,1.48
			c-4.47-0.11-8.38-2.9-8.61-7.17c-0.24-4.27,4.56-3.31,7.4-3.7c18.97-2.61,37.96-5,56.93-7.59c3.64-0.5,7.94,0.02,11.05-4.87
			c-2.68-0.29-4.19-0.68-5.67-0.59c-19.42,1.15-38.85,2.15-58.24,3.66C83.25,261.24,70.71,262.75,61.46,251.19z"/>
	</g>
</g>
</svg>
